<?xml version="1.0" encoding="UTF-8"?>
<svg width="940px" height="740px" viewBox="0 0 940 740" version="1.1" xmlns="http://www.w3.org/2000/svg" xmlns:xlink="http://www.w3.org/1999/xlink">
    <!-- Generator: Sketch 52.6 (67491) - http://www.bohemiancoding.com/sketch -->
    <title>Group 3</title>
    <desc>Created with Sketch.</desc>
    <defs>
        <polygon id="path-1" points="-5.68434189e-14 7.02671886e-13 940 7.0000013e-13 940 740 -5.68434189e-14 740"></polygon>
    </defs>
    <g id="Page-1" stroke="none" stroke-width="1" fill="none" fill-rule="evenodd">
        <g id="Group-3">
            <g id="Group-12-Copy-3">
                <mask id="mask-2" fill="white">
                    <use xlink:href="#path-1"></use>
                </mask>
                <g id="Mask"></g>
                <g id="Banner" opacity="0.3" style="mix-blend-mode: overlay;" mask="url(#mask-2)">
                    <g transform="translate(-400.000000, -456.000000)" id="Shape">
                        <path d="M708.4,1205.4 L705.8,1197.5 C705.4,1196.2 706.1,1194.8 707.4,1194.3 L715.3,1191.7 C716.6,1191.3 718,1192 718.5,1193.3 L721.1,1201.2 C721.5,1202.5 720.8,1203.9 719.5,1204.4 L711.6,1207 C710.2,1207.4 708.8,1206.7 708.4,1205.4 Z" stroke="none" fill="#121E48" fill-rule="nonzero"></path>
                        <path d="M824.8,1182.5 L829.9,1169.3 C831.1,1166.1 834.8,1164.5 838,1165.7 L851.2,1170.8 C854.4,1172 856,1175.7 854.8,1178.9 L849.7,1192.1 C848.5,1195.3 844.8,1196.9 841.6,1195.7 L828.4,1190.6 C825.2,1189.4 823.6,1185.7 824.8,1182.5 Z" stroke="#FFFFFF" stroke-width="3" fill="none"></path>
                        <path d="M816,931.8 L818.1,921.5 C819,917.1 823.3,914.3 827.7,915.2 L838,917.3 C842.4,918.2 845.2,922.5 844.3,926.9 L842.2,937.2 C841.3,941.6 837,944.4 832.6,943.5 L822.3,941.4 C817.9,940.5 815.1,936.2 816,931.8 Z" stroke="none" fill="#FFFFFF" fill-rule="nonzero"></path>
                        <path d="M795.6,1018.1 L803.3,1011 C806.6,1008 811.7,1008.2 814.7,1011.4 L821.8,1019.1 C824.8,1022.4 824.6,1027.5 821.4,1030.5 L813.7,1037.6 C810.4,1040.6 805.3,1040.4 802.3,1037.2 L795.2,1029.5 C792.1,1026.2 792.3,1021.1 795.6,1018.1 Z" stroke="none" fill="#FFFFFF" fill-rule="nonzero"></path>
                        <path d="M722.5,949.4 L718.4,939.8 C716.6,935.7 718.5,930.9 722.7,929.2 L732.3,925.1 C736.4,923.3 741.2,925.2 742.9,929.4 L747,939 C748.8,943.1 746.9,947.9 742.7,949.6 L733.1,953.7 C729,955.4 724.3,953.5 722.5,949.4 Z" stroke="none" fill="#121E48" fill-rule="nonzero"></path>
                        <path d="M625.2,1149.6 L628.9,1139.8 C630.5,1135.6 635.2,1133.5 639.4,1135.1 L649.2,1138.8 C653.4,1140.4 655.5,1145.1 653.9,1149.3 L650.2,1159.1 C648.6,1163.3 643.9,1165.4 639.7,1163.8 L629.9,1160.1 C625.7,1158.5 623.6,1153.8 625.2,1149.6 Z" stroke="none" fill="#121E48" fill-rule="nonzero"></path>
                        <path d="M748.8,1151 L768.1,1143.2 C769.6,1142.6 771.3,1143.3 771.9,1144.8 L779.7,1164.1 C780.3,1165.6 779.6,1167.3 778.1,1167.9 L758.8,1175.7 C757.3,1176.3 755.6,1175.6 755,1174.1 L747.2,1154.8 C746.6,1153.3 747.3,1151.6 748.8,1151 Z" stroke="#121E48" stroke-width="3" fill="none"></path>
                        <path d="M624.3,936.4 L631.3,928.6 C634.3,925.3 639.4,925 642.7,927.9 L650.5,934.9 C653.8,937.9 654.1,943 651.2,946.3 L644.2,954.1 C641.2,957.4 636.1,957.7 632.8,954.8 L625,947.8 C621.6,944.8 621.3,939.7 624.3,936.4 Z" stroke="none" fill="#FFFFFF" fill-rule="nonzero"></path>
                        <path d="M636.8,887.2 L637.8,882.4 C637.9,882 638.3,881.7 638.7,881.8 L643.5,882.8 C643.9,882.9 644.2,883.3 644.1,883.7 L643.1,888.5 C643,888.9 642.6,889.2 642.2,889.1 L637.4,888.1 C637,888.1 636.7,887.6 636.8,887.2 Z" stroke="none" fill="#FFFFFF" fill-rule="nonzero"></path>
                        <path d="M669.8,1014.1 L673.4,1010.7 C673.7,1010.4 674.2,1010.4 674.5,1010.7 L677.9,1014.3 C678.2,1014.6 678.2,1015.1 677.9,1015.4 L674.3,1018.8 C674,1019.1 673.5,1019.1 673.2,1018.8 L669.8,1015.2 C669.5,1015 669.5,1014.4 669.8,1014.1 Z" stroke="none" fill="#FFFFFF" fill-rule="nonzero"></path>
                        <path d="M562.6,979.5 L560.7,975 C560.5,974.6 560.7,974.1 561.1,973.9 L565.6,972 C566,971.8 566.5,972 566.7,972.4 L568.6,976.9 C568.8,977.3 568.6,977.8 568.2,978 L563.7,979.9 C563.2,980.1 562.7,979.9 562.6,979.5 Z" stroke="none" fill="#121E48" fill-rule="nonzero"></path>
                        <path d="M693,1143.1 L694.8,1138.5 C695,1138.1 695.4,1137.9 695.8,1138 L700.4,1139.8 C700.8,1140 701,1140.4 700.9,1140.8 L699.1,1145.4 C698.9,1145.8 698.5,1146 698.1,1145.9 L693.5,1144.1 C693,1144 692.8,1143.5 693,1143.1 Z" stroke="none" fill="#121E48" fill-rule="nonzero"></path>
                        <path d="M728.3,1093.5 L732.9,1091.6 C733.3,1091.4 733.8,1091.6 733.9,1092 L735.8,1096.6 C736,1097 735.8,1097.5 735.4,1097.6 L730.8,1099.5 C730.4,1099.7 729.9,1099.5 729.8,1099.1 L727.9,1094.5 C727.7,1094.2 727.9,1093.7 728.3,1093.5 Z" stroke="none" fill="#FFFFFF" fill-rule="nonzero"></path>
                        <path d="M789.5,973.2 L792.8,969.5 C793.1,969.2 793.6,969.1 793.9,969.4 L797.6,972.7 C797.9,973 798,973.5 797.7,973.8 L794.4,977.5 C794.1,977.8 793.6,977.9 793.3,977.6 L789.6,974.3 C789.2,974 789.2,973.5 789.5,973.2 Z" stroke="none" fill="#FFFFFF" fill-rule="nonzero"></path>
                        <path d="M633.5,1081 L629.6,1073.6 C628.9,1072.4 629.4,1070.9 630.6,1070.2 L638,1066.3 C639.2,1065.6 640.7,1066.1 641.4,1067.3 L645.3,1074.7 C646,1075.9 645.5,1077.4 644.3,1078.1 L636.9,1082 C635.7,1082.7 634.1,1082.2 633.5,1081 Z" stroke="none" fill="#FFFFFF" fill-rule="nonzero"></path>
                        <path d="M569.8,1103.5 L566.2,1095.9 C565.6,1094.6 566.1,1093.2 567.4,1092.6 L575,1089 C576.3,1088.4 577.7,1088.9 578.3,1090.2 L581.9,1097.8 C582.5,1099.1 582,1100.5 580.7,1101.1 L573.1,1104.7 C571.9,1105.3 570.4,1104.8 569.8,1103.5 Z" stroke="none" fill="#FFFFFF" fill-rule="nonzero"></path>
                        <path d="M592.5,1009 L600.8,1009.6 C602.2,1009.7 603.2,1010.9 603.1,1012.3 L602.5,1020.6 C602.4,1022 601.2,1023 599.8,1022.9 L591.5,1022.3 C590.1,1022.2 589.1,1021 589.2,1019.6 L589.8,1011.3 C589.9,1009.9 591.1,1008.9 592.5,1009 Z" stroke="none" fill="#121E48" fill-rule="nonzero"></path>
                        <path d="M568.9,880.4 L566.3,872.5 C565.9,871.2 566.6,869.8 567.9,869.3 L575.8,866.7 C577.1,866.3 578.5,867 579,868.3 L581.6,876.2 C582,877.5 581.3,878.9 580,879.4 L572.1,882 C570.8,882.4 569.4,881.7 568.9,880.4 Z" stroke="none" fill="#121E48" fill-rule="nonzero"></path>
                        <path d="M730.1,1009.3 L736.7,1006 C738.2,1005.3 740,1005.9 740.7,1007.3 L744,1013.9 C744.7,1015.4 744.1,1017.2 742.7,1017.9 L736.1,1021.2 C734.6,1021.9 732.8,1021.3 732.1,1019.9 L728.8,1013.3 C728,1011.8 728.6,1010 730.1,1009.3 Z" stroke="#121E48" stroke-width="1" fill="none"></path>
                        <path d="M798.7,1120.9 L797,1112.7 C796.7,1111.3 797.6,1110 798.9,1109.7 L807.1,1108 C808.5,1107.7 809.8,1108.6 810.1,1109.9 L811.8,1118.1 C812.1,1119.5 811.2,1120.8 809.9,1121.1 L801.7,1122.8 C800.3,1123.1 799,1122.3 798.7,1120.9 Z" stroke="none" fill="#FFFFFF" fill-rule="nonzero"></path>
                        <path d="M685.3,857.6 L690.4,844.4 C691.6,841.2 695.3,839.6 698.5,840.8 L711.7,845.9 C714.9,847.1 716.5,850.8 715.3,854 L710.2,867.2 C709,870.4 705.3,872 702.1,870.8 L688.9,865.7 C685.7,864.4 684.1,860.8 685.3,857.6 Z" stroke="#FFFFFF" stroke-width="3" fill="none"></path>
                        <path d="M862.7,941.2 L860.1,933.3 C859.7,932 860.4,930.6 861.7,930.1 L869.6,927.5 C870.9,927.1 872.3,927.8 872.8,929.1 L875.4,937 C875.8,938.3 875.1,939.7 873.8,940.2 L865.9,942.8 C864.6,943.2 863.2,942.5 862.7,941.2 Z" stroke="#FFFFFF" stroke-width="2" fill="none"></path>
                        <path d="M676.6,606.9 L678.7,596.6 C679.6,592.2 683.9,589.4 688.3,590.3 L698.6,592.4 C703,593.3 705.8,597.6 704.9,602 L702.8,612.3 C701.9,616.7 697.6,619.5 693.2,618.6 L682.9,616.5 C678.5,615.5 675.7,611.2 676.6,606.9 Z" stroke="none" fill="#FFFFFF" fill-rule="nonzero"></path>
                        <path d="M656.1,693.1 L663.8,686 C667.1,683 672.2,683.2 675.2,686.4 L682.3,694.1 C685.3,697.4 685.1,702.5 681.9,705.5 L674.2,712.6 C670.9,715.6 665.8,715.4 662.8,712.2 L655.7,704.5 C652.6,701.3 652.8,696.2 656.1,693.1 Z" stroke="none" fill="#FFFFFF" fill-rule="nonzero"></path>
                        <path d="M583.1,624.5 L579,614.9 C577.2,610.8 579.1,606 583.3,604.3 L592.9,600.2 C597,598.4 601.8,600.3 603.5,604.5 L607.6,614.1 C609.4,618.2 607.5,623 603.3,624.7 L593.7,628.8 C589.6,630.5 584.8,628.6 583.1,624.5 Z" stroke="none" fill="#121E48" fill-rule="nonzero"></path>
                        <path d="M485.8,824.7 L489.5,814.9 C491.1,810.7 495.8,808.6 500,810.2 L509.8,813.9 C514,815.5 516.1,820.2 514.5,824.4 L510.8,834.2 C509.2,838.4 504.5,840.5 500.3,838.9 L490.5,835.2 C486.3,833.5 484.2,828.9 485.8,824.7 Z" stroke="none" fill="#121E48" fill-rule="nonzero"></path>
                        <path d="M609.3,826.1 L628.6,818.3 C630.1,817.7 631.8,818.4 632.4,819.9 L640.2,839.2 C640.8,840.7 640.1,842.4 638.6,843 L619.3,850.8 C617.8,851.4 616.1,850.7 615.5,849.2 L607.7,829.9 C607.1,828.4 607.8,826.7 609.3,826.1 Z" stroke="#121E48" stroke-width="3" fill="none"></path>
                        <path d="M484.8,611.4 L491.8,603.6 C494.8,600.3 499.9,600 503.2,602.9 L511,609.9 C514.3,612.9 514.6,618 511.7,621.3 L504.7,629.1 C501.7,632.4 496.6,632.7 493.3,629.8 L485.5,622.8 C482.2,619.9 481.9,614.8 484.8,611.4 Z" stroke="none" fill="#FFFFFF" fill-rule="nonzero"></path>
                        <path d="M497.4,562.3 L498.4,557.5 C498.5,557.1 498.9,556.8 499.3,556.9 L504.1,557.9 C504.5,558 504.8,558.4 504.7,558.8 L503.7,563.6 C503.6,564 503.2,564.3 502.8,564.2 L498,563.2 C497.5,563.1 497.3,562.7 497.4,562.3 Z" stroke="none" fill="#FFFFFF" fill-rule="nonzero"></path>
                        <path d="M530.4,689.2 L534,685.8 C534.3,685.5 534.8,685.5 535.1,685.8 L538.5,689.4 C538.8,689.7 538.8,690.2 538.5,690.5 L534.9,693.9 C534.6,694.2 534.1,694.2 533.8,693.9 L530.4,690.3 C530,690 530,689.5 530.4,689.2 Z" stroke="none" fill="#FFFFFF" fill-rule="nonzero"></path>
                        <path d="M423.1,654.6 L421.2,650.1 C421,649.7 421.2,649.2 421.6,649 L426.1,647.1 C426.5,646.9 427,647.1 427.2,647.5 L429.1,652 C429.3,652.4 429.1,652.9 428.7,653.1 L424.2,655 C423.8,655.2 423.3,655 423.1,654.6 Z" stroke="none" fill="#121E48" fill-rule="nonzero"></path>
                        <path d="M553.5,818.2 L555.3,813.6 C555.5,813.2 555.9,813 556.3,813.1 L560.9,814.9 C561.3,815.1 561.5,815.5 561.4,815.9 L559.6,820.5 C559.4,820.9 559,821.1 558.6,821 L554,819.2 C553.6,819 553.4,818.6 553.5,818.2 Z" stroke="none" fill="#121E48" fill-rule="nonzero"></path>
                        <path d="M588.9,768.6 L593.5,766.7 C593.9,766.5 594.4,766.7 594.5,767.1 L596.4,771.7 C596.6,772.1 596.4,772.6 596,772.7 L591.4,774.6 C591,774.8 590.5,774.6 590.4,774.2 L588.5,769.6 C588.3,769.2 588.5,768.8 588.9,768.6 Z" stroke="none" fill="#FFFFFF" fill-rule="nonzero"></path>
                        <path d="M650,648.2 L653.3,644.5 C653.6,644.2 654.1,644.1 654.4,644.4 L658.1,647.7 C658.4,648 658.5,648.5 658.2,648.8 L654.9,652.5 C654.6,652.8 654.1,652.9 653.8,652.6 L650.1,649.3 C649.8,649 649.8,648.5 650,648.2 Z" stroke="none" fill="#FFFFFF" fill-rule="nonzero"></path>
                        <path d="M494,756.1 L490.1,748.7 C489.4,747.5 489.9,746 491.1,745.3 L498.5,741.4 C499.7,740.7 501.2,741.2 501.9,742.4 L505.8,749.8 C506.5,751 506,752.5 504.8,753.2 L497.4,757.1 C496.2,757.7 494.7,757.3 494,756.1 Z" stroke="none" fill="#FFFFFF" fill-rule="nonzero"></path>
                        <path d="M430.4,778.6 L426.8,771 C426.2,769.7 426.7,768.3 428,767.7 L435.6,764.1 C436.9,763.5 438.3,764 438.9,765.3 L442.5,772.9 C443.1,774.2 442.6,775.6 441.3,776.2 L433.7,779.8 C432.5,780.4 431,779.8 430.4,778.6 Z" stroke="none" fill="#FFFFFF" fill-rule="nonzero"></path>
                        <path d="M453,684.1 L461.3,684.7 C462.7,684.8 463.7,686 463.6,687.4 L463,695.7 C462.9,697.1 461.7,698.1 460.3,698 L452,697.4 C450.6,697.3 449.6,696.1 449.7,694.7 L450.3,686.4 C450.5,685 451.7,683.9 453,684.1 Z" stroke="none" fill="#121E48" fill-rule="nonzero"></path>
                        <path d="M429.5,555.5 L426.9,547.6 C426.5,546.3 427.2,544.9 428.5,544.4 L436.4,541.8 C437.7,541.4 439.1,542.1 439.6,543.4 L442.2,551.3 C442.6,552.6 441.9,554 440.6,554.5 L432.7,557.1 C431.3,557.5 429.9,556.8 429.5,555.5 Z" stroke="none" fill="#121E48" fill-rule="nonzero"></path>
                        <path d="M590.7,684.3 L597.3,681 C598.8,680.3 600.6,680.9 601.3,682.3 L604.6,688.9 C605.3,690.4 604.7,692.2 603.3,692.9 L596.7,696.2 C595.2,696.9 593.4,696.3 592.7,694.9 L589.4,688.3 C588.6,686.9 589.2,685.1 590.7,684.3 Z" stroke="#121E48" stroke-width="1" fill="none"></path>
                        <path d="M659.3,796 L657.6,787.8 C657.3,786.4 658.2,785.1 659.5,784.8 L667.7,783.1 C669.1,782.8 670.4,783.7 670.7,785 L672.4,793.2 C672.7,794.6 671.8,795.9 670.5,796.2 L662.3,797.9 C660.9,798.2 659.6,797.3 659.3,796 Z" stroke="none" fill="#FFFFFF" fill-rule="nonzero"></path>
                        <path d="M545.9,532.6 L551,519.4 C552.2,516.2 555.9,514.6 559.1,515.8 L572.3,520.9 C575.5,522.1 577.1,525.8 575.9,529 L570.8,542.2 C569.6,545.4 565.9,547 562.7,545.8 L549.5,540.7 C546.3,539.5 544.7,535.9 545.9,532.6 Z" stroke="#FFFFFF" stroke-width="3" fill="none"></path>
                        <path d="M723.3,616.2 L720.7,608.3 C720.3,607 721,605.6 722.3,605.1 L730.2,602.5 C731.5,602.1 732.9,602.8 733.4,604.1 L736,612 C736.4,613.3 735.7,614.7 734.4,615.2 L726.5,617.8 C725.1,618.3 723.7,617.6 723.3,616.2 Z" stroke="#FFFFFF" stroke-width="2" fill="none"></path>
                        <path d="M469.9,501.2 L489.2,493.4 C490.7,492.8 492.4,493.5 493,495 L500.8,514.3 C501.4,515.8 500.7,517.5 499.2,518.1 L479.9,525.9 C478.4,526.5 476.7,525.8 476.1,524.3 L468.3,505 C467.7,503.4 468.4,501.8 469.9,501.2 Z" stroke="#121E48" stroke-width="3" fill="none"></path>
                        <path d="M414.1,493.2 L415.9,488.6 C416.1,488.2 416.5,488 416.9,488.1 L421.5,489.9 C421.9,490.1 422.1,490.5 422,490.9 L420.2,495.5 C420,495.9 419.6,496.1 419.2,496 L414.6,494.2 C414.1,494.1 413.9,493.6 414.1,493.2 Z" stroke="none" fill="#121E48" fill-rule="nonzero"></path>
                        <path d="M519.8,471 L518.1,462.8 C517.8,461.4 518.7,460.1 520,459.8 L528.2,458.1 C529.6,457.8 530.9,458.7 531.2,460 L532.9,468.2 C533.2,469.6 532.3,470.9 531,471.2 L522.8,472.9 C521.4,473.2 520.1,472.4 519.8,471 Z" stroke="none" fill="#FFFFFF" fill-rule="nonzero"></path>
                        <path d="M472.6,1197.5 L473.6,1192.7 C473.7,1192.3 474.1,1192 474.5,1192.1 L479.3,1193.1 C479.7,1193.2 480,1193.6 479.9,1194 L478.9,1198.8 C478.8,1199.2 478.4,1199.5 478,1199.4 L473.2,1198.4 C472.8,1198.4 472.5,1197.9 472.6,1197.5 Z" stroke="none" fill="#FFFFFF" fill-rule="nonzero"></path>
                        <path d="M404.7,1190.7 L402.1,1182.8 C401.7,1181.5 402.4,1180.1 403.7,1179.6 L411.6,1177 C412.9,1176.6 414.3,1177.3 414.8,1178.6 L417.4,1186.5 C417.8,1187.8 417.1,1189.2 415.8,1189.7 L407.9,1192.3 C406.6,1192.7 405.2,1192 404.7,1190.7 Z" stroke="none" fill="#121E48" fill-rule="nonzero"></path>
                        <path d="M521.1,1167.9 L526.2,1154.7 C527.4,1151.5 531.1,1149.9 534.3,1151.1 L547.5,1156.2 C550.7,1157.4 552.3,1161.1 551.1,1164.3 L546,1177.5 C544.8,1180.7 541.1,1182.3 537.9,1181.1 L524.7,1176 C521.5,1174.7 519.9,1171.1 521.1,1167.9 Z" stroke="#FFFFFF" stroke-width="3" fill="none"></path>
                        <path d="M512.4,917.2 L514.5,906.9 C515.4,902.5 519.7,899.7 524.1,900.6 L534.4,902.7 C538.8,903.6 541.6,907.9 540.7,912.3 L538.6,922.6 C537.7,927 533.4,929.8 529,928.9 L518.7,926.8 C514.3,925.8 511.5,921.5 512.4,917.2 Z" stroke="none" fill="#FFFFFF" fill-rule="nonzero"></path>
                        <path d="M491.9,1003.4 L499.6,996.3 C502.9,993.3 508,993.5 511,996.7 L518.1,1004.4 C521.1,1007.7 520.9,1012.8 517.7,1015.8 L510,1023 C506.7,1026 501.6,1025.8 498.6,1022.6 L491.5,1014.9 C488.4,1011.6 488.6,1006.5 491.9,1003.4 Z" stroke="none" fill="#FFFFFF" fill-rule="nonzero"></path>
                        <path d="M418.9,934.8 L414.8,925.2 C413,921.1 414.9,916.3 419.1,914.6 L428.7,910.5 C432.8,908.7 437.6,910.6 439.3,914.8 L443.4,924.4 C445.2,928.5 443.3,933.3 439.1,935 L429.5,939.1 C425.4,940.8 420.6,938.9 418.9,934.8 Z" stroke="none" fill="#121E48" fill-rule="nonzero"></path>
                        <path d="M445.1,1136.4 L464.4,1128.6 C465.9,1128 467.6,1128.7 468.2,1130.2 L476,1149.5 C476.6,1151 475.9,1152.7 474.4,1153.3 L455.1,1161.1 C453.6,1161.7 451.9,1161 451.3,1159.5 L443.5,1140.2 C442.9,1138.7 443.6,1137 445.1,1136.4 Z" stroke="#121E48" stroke-width="3" fill="none"></path>
                        <path d="M424.7,1078.9 L429.3,1077 C429.7,1076.8 430.2,1077 430.3,1077.4 L432.2,1082 C432.4,1082.4 432.2,1082.9 431.8,1083 L427.2,1084.9 C426.8,1085.1 426.3,1084.9 426.2,1084.5 L424.3,1079.9 C424.1,1079.5 424.3,1079.1 424.7,1078.9 Z" stroke="none" fill="#FFFFFF" fill-rule="nonzero"></path>
                        <path d="M485.8,958.5 L489.1,954.8 C489.4,954.5 489.9,954.4 490.2,954.7 L493.9,958 C494.2,958.3 494.3,958.8 494,959.1 L490.7,962.8 C490.4,963.1 489.9,963.2 489.6,962.9 L485.9,959.6 C485.6,959.3 485.5,958.8 485.8,958.5 Z" stroke="none" fill="#FFFFFF" fill-rule="nonzero"></path>
                        <path d="M426.5,994.6 L433.1,991.3 C434.6,990.6 436.4,991.2 437.1,992.6 L440.4,999.2 C441.1,1000.7 440.5,1002.5 439.1,1003.2 L432.5,1006.5 C431,1007.2 429.2,1006.6 428.5,1005.2 L425.2,998.6 C424.4,997.2 425,995.4 426.5,994.6 Z" stroke="#121E48" stroke-width="1" fill="none"></path>
                        <path d="M495.1,1106.3 L493.4,1098.1 C493.1,1096.7 494,1095.4 495.3,1095.1 L503.5,1093.4 C504.9,1093.1 506.2,1094 506.5,1095.3 L508.2,1103.5 C508.5,1104.9 507.6,1106.2 506.3,1106.5 L498.1,1108.2 C496.7,1108.5 495.4,1107.6 495.1,1106.3 Z" stroke="none" fill="#FFFFFF" fill-rule="nonzero"></path>
                        <path d="M381.7,842.9 L386.8,829.7 C388,826.5 391.7,824.9 394.9,826.1 L408.1,831.2 C411.3,832.4 412.9,836.1 411.7,839.3 L406.6,852.5 C405.4,855.7 401.7,857.3 398.5,856.1 L385.3,851 C382.1,849.8 380.5,846.1 381.7,842.9 Z" stroke="#FFFFFF" stroke-width="3" fill="none"></path>
                        <path d="M559.1,926.5 L556.5,918.6 C556.1,917.3 556.8,915.9 558.1,915.4 L566,912.8 C567.3,912.4 568.7,913.1 569.2,914.4 L571.8,922.3 C572.2,923.6 571.5,925 570.2,925.5 L562.3,928.1 C560.9,928.6 559.5,927.9 559.1,926.5 Z" stroke="#FFFFFF" stroke-width="2" fill="none"></path>
                        <path d="M372.9,592.2 L375,582 C375.9,577.6 380.2,574.8 384.6,575.7 L394.9,577.8 C399.3,578.7 402.1,583 401.2,587.4 L399.1,597.7 C398.2,602.1 393.9,604.9 389.5,604 L379.2,601.9 C374.8,600.9 372,596.6 372.9,592.2 Z" stroke="none" fill="#FFFFFF" fill-rule="nonzero"></path>
                        <path d="M419.6,601.6 L417,593.7 C416.6,592.4 417.3,591 418.6,590.5 L426.5,587.9 C427.8,587.5 429.2,588.2 429.7,589.5 L432.3,597.4 C432.7,598.7 432,600.1 430.7,600.6 L422.8,603.2 C421.5,603.6 420.1,602.9 419.6,601.6 Z" stroke="#FFFFFF" stroke-width="2" fill="none"></path>
                        <path d="M1328.9,695.8 L1327,691.3 C1326.8,690.9 1327,690.4 1327.4,690.2 L1331.9,688.3 C1332.3,688.1 1332.8,688.3 1333,688.7 L1334.9,693.2 C1335.1,693.6 1334.9,694.1 1334.5,694.3 L1330,696.2 C1329.6,696.4 1329.1,696.2 1328.9,695.8 Z" stroke="none" fill="#121E48" fill-rule="nonzero"></path>
                        <path d="M1336.2,819.8 L1332.6,812.2 C1332,810.9 1332.5,809.5 1333.8,808.9 L1341.4,805.3 C1342.7,804.7 1344.1,805.2 1344.7,806.5 L1348.3,814.1 C1348.9,815.4 1348.4,816.8 1347.1,817.4 L1339.5,821 C1338.3,821.6 1336.8,821.1 1336.2,819.8 Z" stroke="none" fill="#FFFFFF" fill-rule="nonzero"></path>
                        <path d="M1335.3,596.7 L1332.7,588.8 C1332.3,587.5 1333,586.1 1334.3,585.6 L1342.2,583 C1343.5,582.6 1344.9,583.3 1345.4,584.6 L1348,592.5 C1348.4,593.8 1347.7,595.2 1346.4,595.7 L1338.5,598.3 C1337.1,598.7 1335.7,598 1335.3,596.7 Z" stroke="none" fill="#121E48" fill-rule="nonzero"></path>
                        <path d="M1252.1,541 L1255.8,531.2 C1257.4,527 1262.1,524.9 1266.3,526.5 L1276.1,530.2 C1280.3,531.8 1282.4,536.5 1280.8,540.7 L1277.1,550.5 C1275.5,554.7 1270.8,556.8 1266.6,555.2 L1256.8,551.5 C1252.6,549.8 1250.5,545.1 1252.1,541 Z" stroke="none" fill="#121E48" fill-rule="nonzero"></path>
                        <path d="M1319.8,534.4 L1321.6,529.8 C1321.8,529.4 1322.2,529.2 1322.6,529.3 L1327.2,531.1 C1327.6,531.3 1327.8,531.7 1327.7,532.1 L1325.9,536.7 C1325.7,537.1 1325.3,537.3 1324.9,537.2 L1320.3,535.4 C1319.9,535.3 1319.7,534.8 1319.8,534.4 Z" stroke="none" fill="#121E48" fill-rule="nonzero"></path>
                        <path d="M1260.4,472.3 L1256.5,464.9 C1255.8,463.7 1256.3,462.2 1257.5,461.5 L1264.9,457.6 C1266.1,456.9 1267.6,457.4 1268.3,458.6 L1272.2,466 C1272.9,467.2 1272.4,468.7 1271.2,469.4 L1263.8,473.3 C1262.6,474 1261,473.6 1260.4,472.3 Z" stroke="none" fill="#FFFFFF" fill-rule="nonzero"></path>
                        <path d="M1196.7,494.9 L1193.1,487.3 C1192.5,486 1193,484.6 1194.3,484 L1201.9,480.4 C1203.2,479.8 1204.6,480.3 1205.2,481.6 L1208.8,489.2 C1209.4,490.5 1208.9,491.9 1207.6,492.5 L1200,496.1 C1198.8,496.6 1197.3,496.1 1196.7,494.9 Z" stroke="none" fill="#FFFFFF" fill-rule="nonzero"></path>
                        <path d="M1324.7,976 L1320.6,966.4 C1318.8,962.3 1320.7,957.5 1324.9,955.8 L1334.5,951.7 C1338.6,949.9 1343.4,951.8 1345.1,956 L1349.2,965.6 C1351,969.7 1349.1,974.5 1344.9,976.2 L1335.3,980.3 C1331.2,982 1326.4,980.1 1324.7,976 Z" stroke="none" fill="#121E48" fill-rule="nonzero"></path>
                        <path d="M1227.4,1176.2 L1231.1,1166.4 C1232.7,1162.2 1237.4,1160.1 1241.6,1161.7 L1251.4,1165.4 C1255.6,1167 1257.7,1171.7 1256.1,1175.9 L1252.4,1185.7 C1250.8,1189.9 1246.1,1192 1241.9,1190.4 L1232.1,1186.7 C1227.9,1185.1 1225.8,1180.4 1227.4,1176.2 Z" stroke="none" fill="#121E48" fill-rule="nonzero"></path>
                        <path d="M1226.4,962.9 L1233.4,955.1 C1236.4,951.8 1241.5,951.5 1244.8,954.4 L1252.6,961.4 C1255.9,964.4 1256.2,969.5 1253.3,972.8 L1246.3,980.6 C1243.3,983.9 1238.2,984.2 1234.9,981.3 L1227.1,974.3 C1223.8,971.4 1223.5,966.3 1226.4,962.9 Z" stroke="none" fill="#FFFFFF" fill-rule="nonzero"></path>
                        <path d="M1238.9,913.8 L1239.9,909 C1240,908.6 1240.4,908.3 1240.8,908.4 L1245.6,909.4 C1246,909.5 1246.3,909.9 1246.2,910.3 L1245.2,915.1 C1245.1,915.5 1244.7,915.8 1244.3,915.7 L1239.5,914.7 C1239.1,914.6 1238.9,914.2 1238.9,913.8 Z" stroke="none" fill="#FFFFFF" fill-rule="nonzero"></path>
                        <path d="M1271.9,1040.7 L1275.5,1037.3 C1275.8,1037 1276.3,1037 1276.6,1037.3 L1280,1040.9 C1280.3,1041.2 1280.3,1041.7 1280,1042 L1276.4,1045.4 C1276.1,1045.7 1275.6,1045.7 1275.3,1045.4 L1271.9,1041.8 C1271.6,1041.5 1271.6,1041 1271.9,1040.7 Z" stroke="none" fill="#FFFFFF" fill-rule="nonzero"></path>
                        <path d="M1164.7,1006.1 L1162.8,1001.6 C1162.6,1001.2 1162.8,1000.7 1163.2,1000.5 L1167.7,998.6 C1168.1,998.4 1168.6,998.6 1168.8,999 L1170.7,1003.5 C1170.9,1003.9 1170.7,1004.4 1170.3,1004.6 L1165.8,1006.5 C1165.3,1006.7 1164.9,1006.5 1164.7,1006.1 Z" stroke="none" fill="#121E48" fill-rule="nonzero"></path>
                        <path d="M1295.1,1169.7 L1296.9,1165.1 C1297.1,1164.7 1297.5,1164.5 1297.9,1164.6 L1302.5,1166.4 C1302.9,1166.6 1303.1,1167 1303,1167.4 L1301.2,1172 C1301,1172.4 1300.6,1172.6 1300.2,1172.5 L1295.6,1170.7 C1295.1,1170.5 1294.9,1170.1 1295.1,1169.7 Z" stroke="none" fill="#121E48" fill-rule="nonzero"></path>
                        <path d="M1330.4,1120.1 L1335,1118.2 C1335.4,1118 1335.9,1118.2 1336,1118.6 L1337.9,1123.2 C1338.1,1123.6 1337.9,1124.1 1337.5,1124.2 L1332.9,1126.1 C1332.5,1126.3 1332,1126.1 1331.9,1125.7 L1330,1121.1 C1329.8,1120.7 1330,1120.3 1330.4,1120.1 Z" stroke="none" fill="#FFFFFF" fill-rule="nonzero"></path>
                        <path d="M1235.6,1107.6 L1231.7,1100.2 C1231,1099 1231.5,1097.5 1232.7,1096.8 L1240.1,1092.9 C1241.3,1092.2 1242.8,1092.7 1243.5,1093.9 L1247.4,1101.3 C1248.1,1102.5 1247.6,1104 1246.4,1104.7 L1239,1108.6 C1237.8,1109.3 1236.3,1108.8 1235.6,1107.6 Z" stroke="none" fill="#FFFFFF" fill-rule="nonzero"></path>
                        <path d="M1172,1130.1 L1168.4,1122.5 C1167.8,1121.2 1168.3,1119.8 1169.6,1119.2 L1177.2,1115.6 C1178.5,1115 1179.9,1115.5 1180.5,1116.8 L1184.1,1124.4 C1184.7,1125.7 1184.2,1127.1 1182.9,1127.7 L1175.3,1131.3 C1174.1,1131.9 1172.6,1131.3 1172,1130.1 Z" stroke="none" fill="#FFFFFF" fill-rule="nonzero"></path>
                        <path d="M1194.6,1035.6 L1202.9,1036.2 C1204.3,1036.3 1205.3,1037.5 1205.2,1038.9 L1204.6,1047.2 C1204.5,1048.6 1203.3,1049.6 1201.9,1049.5 L1193.6,1048.9 C1192.2,1048.8 1191.2,1047.6 1191.3,1046.2 L1191.9,1037.9 C1192,1036.5 1193.2,1035.5 1194.6,1035.6 Z" stroke="none" fill="#121E48" fill-rule="nonzero"></path>
                        <path d="M1171.1,907 L1168.5,899.1 C1168.1,897.8 1168.8,896.4 1170.1,895.9 L1178,893.3 C1179.3,892.9 1180.7,893.6 1181.2,894.9 L1183.8,902.8 C1184.2,904.1 1183.5,905.5 1182.2,906 L1174.3,908.6 C1172.9,909 1171.5,908.3 1171.1,907 Z" stroke="none" fill="#121E48" fill-rule="nonzero"></path>
                        <path d="M1332.2,1035.8 L1338.8,1032.5 C1340.3,1031.8 1342.1,1032.4 1342.8,1033.8 L1346.1,1040.4 C1346.8,1041.9 1346.2,1043.7 1344.8,1044.4 L1338.2,1047.7 C1336.7,1048.4 1334.9,1047.8 1334.2,1046.4 L1330.9,1039.8 C1330.2,1038.4 1330.8,1036.6 1332.2,1035.8 Z" stroke="#121E48" stroke-width="1" fill="none"></path>
                        <path d="M1287.5,884.1 L1292.6,870.9 C1293.8,867.7 1297.5,866.1 1300.7,867.3 L1313.9,872.4 C1317.1,873.6 1318.7,877.3 1317.5,880.5 L1312.4,893.7 C1311.2,896.9 1307.5,898.5 1304.3,897.3 L1291.1,892.2 C1287.9,891 1286.2,887.4 1287.5,884.1 Z" stroke="#FFFFFF" stroke-width="3" fill="none"></path>
                        <path d="M1278.7,633.4 L1280.8,623.1 C1281.7,618.7 1286,615.9 1290.4,616.8 L1300.7,618.9 C1305.1,619.8 1307.9,624.1 1307,628.5 L1304.9,638.8 C1304,643.2 1299.7,646 1295.3,645.1 L1285,643 C1280.6,642.1 1277.8,637.8 1278.7,633.4 Z" stroke="none" fill="#FFFFFF" fill-rule="nonzero"></path>
                        <path d="M1258.3,719.7 L1266,712.6 C1269.3,709.6 1274.4,709.8 1277.4,713 L1284.5,720.7 C1287.5,724 1287.3,729.1 1284.1,732.1 L1276.4,739.2 C1273.1,742.2 1268,742 1265,738.8 L1257.9,731.1 C1254.8,727.9 1255,722.7 1258.3,719.7 Z" stroke="none" fill="#FFFFFF" fill-rule="nonzero"></path>
                        <path d="M1185.2,651.1 L1181.1,641.5 C1179.3,637.4 1181.2,632.6 1185.4,630.9 L1195,626.8 C1199.1,625 1203.9,626.9 1205.6,631.1 L1209.7,640.7 C1211.5,644.8 1209.6,649.6 1205.4,651.3 L1195.8,655.4 C1191.7,657.1 1187,655.2 1185.2,651.1 Z" stroke="none" fill="#121E48" fill-rule="nonzero"></path>
                        <path d="M1087.9,851.3 L1091.6,841.5 C1093.2,837.3 1097.9,835.2 1102.1,836.8 L1111.9,840.5 C1116.1,842.1 1118.2,846.8 1116.6,851 L1112.9,860.8 C1111.3,865 1106.6,867.1 1102.4,865.5 L1092.6,861.8 C1088.4,860.1 1086.3,855.4 1087.9,851.3 Z" stroke="none" fill="#121E48" fill-rule="nonzero"></path>
                        <path d="M1211.5,852.7 L1230.8,844.9 C1232.3,844.3 1234,845 1234.6,846.5 L1242.4,865.8 C1243,867.3 1242.3,869 1240.8,869.6 L1221.5,877.4 C1220,878 1218.3,877.3 1217.7,875.8 L1209.9,856.5 C1209.3,855 1210,853.3 1211.5,852.7 Z" stroke="#121E48" stroke-width="3" fill="none"></path>
                        <path d="M1087,638 L1094,630.2 C1097,626.9 1102.1,626.6 1105.4,629.5 L1113.2,636.5 C1116.5,639.5 1116.8,644.6 1113.9,647.9 L1106.9,655.7 C1103.9,659 1098.8,659.3 1095.5,656.4 L1087.7,649.4 C1084.3,646.4 1084,641.3 1087,638 Z" stroke="none" fill="#FFFFFF" fill-rule="nonzero"></path>
                        <path d="M1099.5,588.8 L1100.5,584 C1100.6,583.6 1101,583.3 1101.4,583.4 L1106.2,584.4 C1106.6,584.5 1106.9,584.9 1106.8,585.3 L1105.8,590.1 C1105.7,590.5 1105.3,590.8 1104.9,590.7 L1100.1,589.7 C1099.7,589.7 1099.4,589.3 1099.5,588.8 Z" stroke="none" fill="#FFFFFF" fill-rule="nonzero"></path>
                        <path d="M1132.5,715.8 L1136.1,712.4 C1136.4,712.1 1136.9,712.1 1137.2,712.4 L1140.6,716 C1140.9,716.3 1140.9,716.8 1140.6,717.1 L1137,720.5 C1136.7,720.8 1136.2,720.8 1135.9,720.5 L1132.5,716.9 C1132.1,716.6 1132.2,716.1 1132.5,715.8 Z" stroke="none" fill="#FFFFFF" fill-rule="nonzero"></path>
                        <path d="M1025.3,681.1 L1023.4,676.6 C1023.2,676.2 1023.4,675.7 1023.8,675.5 L1028.3,673.6 C1028.7,673.4 1029.2,673.6 1029.4,674 L1031.3,678.5 C1031.5,678.9 1031.3,679.4 1030.9,679.6 L1026.4,681.5 C1025.9,681.7 1025.4,681.6 1025.3,681.1 Z" stroke="none" fill="#121E48" fill-rule="nonzero"></path>
                        <path d="M1155.6,844.7 L1157.4,840.1 C1157.6,839.7 1158,839.5 1158.4,839.6 L1163,841.4 C1163.4,841.6 1163.6,842 1163.5,842.4 L1161.7,847 C1161.5,847.4 1161.1,847.6 1160.7,847.5 L1156.1,845.7 C1155.7,845.6 1155.5,845.1 1155.6,844.7 Z" stroke="none" fill="#121E48" fill-rule="nonzero"></path>
                        <path d="M1191,795.2 L1195.6,793.3 C1196,793.1 1196.5,793.3 1196.6,793.7 L1198.5,798.3 C1198.7,798.7 1198.5,799.2 1198.1,799.3 L1193.5,801.2 C1193.1,801.4 1192.6,801.2 1192.5,800.8 L1190.6,796.2 C1190.4,795.8 1190.6,795.3 1191,795.2 Z" stroke="none" fill="#FFFFFF" fill-rule="nonzero"></path>
                        <path d="M1252.2,674.8 L1255.5,671.1 C1255.8,670.8 1256.3,670.7 1256.6,671 L1260.3,674.3 C1260.6,674.6 1260.7,675.1 1260.4,675.4 L1257.1,679.1 C1256.8,679.4 1256.3,679.5 1256,679.2 L1252.3,675.9 C1251.9,675.6 1251.9,675.1 1252.2,674.8 Z" stroke="none" fill="#FFFFFF" fill-rule="nonzero"></path>
                        <path d="M1096.2,782.6 L1092.3,775.2 C1091.6,774 1092.1,772.5 1093.3,771.8 L1100.7,767.9 C1101.9,767.2 1103.4,767.7 1104.1,768.9 L1108,776.3 C1108.7,777.5 1108.2,779 1107,779.7 L1099.6,783.6 C1098.3,784.3 1096.8,783.9 1096.2,782.6 Z" stroke="none" fill="#FFFFFF" fill-rule="nonzero"></path>
                        <path d="M1032.5,805.2 L1028.9,797.6 C1028.3,796.3 1028.8,794.9 1030.1,794.3 L1037.7,790.7 C1039,790.1 1040.4,790.6 1041,791.9 L1044.6,799.5 C1045.2,800.8 1044.7,802.2 1043.4,802.8 L1035.8,806.4 C1034.6,806.9 1033.1,806.4 1032.5,805.2 Z" stroke="none" fill="#FFFFFF" fill-rule="nonzero"></path>
                        <path d="M1055.2,710.6 L1063.5,711.2 C1064.9,711.3 1065.9,712.5 1065.8,713.9 L1065.2,722.2 C1065.1,723.6 1063.9,724.6 1062.5,724.5 L1054.2,723.9 C1052.8,723.8 1051.8,722.6 1051.9,721.2 L1052.5,712.9 C1052.6,711.6 1053.8,710.5 1055.2,710.6 Z" stroke="none" fill="#121E48" fill-rule="nonzero"></path>
                        <path d="M1031.6,582 L1029,574.1 C1028.6,572.8 1029.3,571.4 1030.6,570.9 L1038.5,568.3 C1039.8,567.9 1041.2,568.6 1041.7,569.9 L1044.3,577.8 C1044.7,579.1 1044,580.5 1042.7,581 L1034.8,583.6 C1033.5,584.1 1032.1,583.4 1031.6,582 Z" stroke="none" fill="#121E48" fill-rule="nonzero"></path>
                        <path d="M1192.8,710.9 L1199.4,707.6 C1200.9,706.9 1202.7,707.5 1203.4,708.9 L1206.7,715.5 C1207.4,717 1206.8,718.8 1205.4,719.5 L1198.8,722.8 C1197.3,723.5 1195.5,722.9 1194.8,721.5 L1191.5,714.9 C1190.7,713.4 1191.3,711.6 1192.8,710.9 Z" stroke="#121E48" stroke-width="1" fill="none"></path>
                        <path d="M1261.4,822.5 L1259.7,814.3 C1259.4,812.9 1260.3,811.6 1261.6,811.3 L1269.8,809.6 C1271.2,809.3 1272.5,810.2 1272.8,811.5 L1274.5,819.7 C1274.8,821.1 1273.9,822.4 1272.6,822.7 L1264.4,824.4 C1263,824.8 1261.7,823.9 1261.4,822.5 Z" stroke="none" fill="#FFFFFF" fill-rule="nonzero"></path>
                        <path d="M1148,559.2 L1153.1,546 C1154.3,542.8 1158,541.2 1161.2,542.4 L1174.4,547.5 C1177.6,548.7 1179.2,552.4 1178,555.6 L1172.9,568.8 C1171.7,572 1168,573.6 1164.8,572.4 L1151.6,567.3 C1148.4,566 1146.8,562.4 1148,559.2 Z" stroke="#FFFFFF" stroke-width="3" fill="none"></path>
                        <path d="M1325.4,642.8 L1322.8,634.9 C1322.4,633.6 1323.1,632.2 1324.4,631.7 L1332.3,629.1 C1333.6,628.7 1335,629.4 1335.5,630.7 L1338.1,638.6 C1338.5,639.9 1337.8,641.3 1336.5,641.8 L1328.6,644.4 C1327.3,644.8 1325.8,644.1 1325.4,642.8 Z" stroke="#FFFFFF" stroke-width="2" fill="none"></path>
                        <path d="M948.5,526.3 L952.2,516.5 C953.8,512.3 958.5,510.2 962.7,511.8 L972.5,515.5 C976.7,517.1 978.8,521.8 977.2,526 L973.5,535.8 C971.9,540 967.2,542.1 963,540.5 L953.2,536.8 C949,535.2 946.9,530.5 948.5,526.3 Z" stroke="none" fill="#121E48" fill-rule="nonzero"></path>
                        <path d="M1072,527.7 L1091.3,519.9 C1092.8,519.3 1094.5,520 1095.1,521.5 L1102.9,540.8 C1103.5,542.3 1102.8,544 1101.3,544.6 L1082,552.4 C1080.5,553 1078.8,552.3 1078.2,550.8 L1070.4,531.5 C1069.8,530 1070.5,528.3 1072,527.7 Z" stroke="#121E48" stroke-width="3" fill="none"></path>
                        <path d="M1016.2,519.8 L1018,515.2 C1018.2,514.8 1018.6,514.6 1019,514.7 L1023.6,516.5 C1024,516.7 1024.2,517.1 1024.1,517.5 L1022.3,522.1 C1022.1,522.5 1021.7,522.7 1021.3,522.6 L1016.7,520.8 C1016.2,520.7 1016,520.2 1016.2,519.8 Z" stroke="none" fill="#121E48" fill-rule="nonzero"></path>
                        <path d="M1051.6,470.2 L1056.2,468.3 C1056.6,468.1 1057.1,468.3 1057.2,468.7 L1059.1,473.3 C1059.3,473.7 1059.1,474.2 1058.7,474.3 L1054.1,476.2 C1053.7,476.4 1053.2,476.2 1053.1,475.8 L1051.2,471.2 C1050.9,470.9 1051.1,470.4 1051.6,470.2 Z" stroke="none" fill="#FFFFFF" fill-rule="nonzero"></path>
                        <path d="M956.7,457.7 L952.8,450.3 C952.1,449.1 952.6,447.6 953.8,446.9 L961.2,443 C962.4,442.3 963.9,442.8 964.6,444 L968.5,451.4 C969.2,452.6 968.7,454.1 967.5,454.8 L960.1,458.7 C958.9,459.4 957.4,458.9 956.7,457.7 Z" stroke="none" fill="#FFFFFF" fill-rule="nonzero"></path>
                        <path d="M893.1,480.2 L889.5,472.6 C888.9,471.3 889.4,469.9 890.7,469.3 L898.3,465.7 C899.6,465.1 901,465.6 901.6,466.9 L905.2,474.5 C905.8,475.8 905.3,477.2 904,477.8 L896.4,481.4 C895.2,482 893.7,481.5 893.1,480.2 Z" stroke="none" fill="#FFFFFF" fill-rule="nonzero"></path>
                        <path d="M1122,497.6 L1120.3,489.4 C1120,488 1120.9,486.7 1122.2,486.4 L1130.4,484.7 C1131.8,484.4 1133.1,485.3 1133.4,486.6 L1135.1,494.8 C1135.4,496.2 1134.5,497.5 1133.2,497.8 L1125,499.5 C1123.6,499.8 1122.2,499 1122,497.6 Z" stroke="none" fill="#FFFFFF" fill-rule="nonzero"></path>
                        <path d="M1123.3,1194.4 L1128.4,1181.2 C1129.6,1178 1133.3,1176.4 1136.5,1177.6 L1149.7,1182.7 C1152.9,1183.9 1154.5,1187.6 1153.3,1190.8 L1148.2,1204 C1147,1207.2 1143.3,1208.8 1140.1,1207.6 L1126.9,1202.5 C1123.7,1201.3 1122,1197.7 1123.3,1194.4 Z" stroke="#FFFFFF" stroke-width="3" fill="none"></path>
                        <path d="M1114.5,943.7 L1116.6,933.4 C1117.5,929 1121.8,926.2 1126.2,927.1 L1136.5,929.2 C1140.9,930.1 1143.7,934.4 1142.8,938.8 L1140.7,949.1 C1139.8,953.5 1135.5,956.3 1131.1,955.4 L1120.8,953.3 C1116.4,952.4 1113.6,948.1 1114.5,943.7 Z" stroke="none" fill="#FFFFFF" fill-rule="nonzero"></path>
                        <path d="M1094,1030 L1101.7,1022.9 C1105,1019.9 1110.1,1020.1 1113.1,1023.3 L1120.2,1031 C1123.2,1034.3 1123,1039.4 1119.8,1042.4 L1112.1,1049.5 C1108.8,1052.5 1103.7,1052.3 1100.7,1049.1 L1093.6,1041.4 C1090.6,1038.2 1090.8,1033 1094,1030 Z" stroke="none" fill="#FFFFFF" fill-rule="nonzero"></path>
                        <path d="M1021,961.3 L1016.9,951.7 C1015.1,947.6 1017,942.8 1021.2,941.1 L1030.8,937 C1034.9,935.2 1039.7,937.1 1041.4,941.3 L1045.5,950.9 C1047.3,955 1045.4,959.8 1041.2,961.5 L1031.6,965.6 C1027.5,967.4 1022.8,965.5 1021,961.3 Z" stroke="none" fill="#121E48" fill-rule="nonzero"></path>
                        <path d="M923.7,1161.6 L927.4,1151.8 C929,1147.6 933.7,1145.5 937.9,1147.1 L947.7,1150.8 C951.9,1152.4 954,1157.1 952.4,1161.3 L948.7,1171.1 C947.1,1175.3 942.4,1177.4 938.2,1175.8 L928.4,1172.1 C924.2,1170.4 922.1,1165.7 923.7,1161.6 Z" stroke="none" fill="#121E48" fill-rule="nonzero"></path>
                        <path d="M1047.3,1163 L1066.6,1155.2 C1068.1,1154.6 1069.8,1155.3 1070.4,1156.8 L1078.2,1176.1 C1078.8,1177.6 1078.1,1179.3 1076.6,1179.9 L1057.3,1187.7 C1055.8,1188.3 1054.1,1187.6 1053.5,1186.1 L1045.7,1166.8 C1045.1,1165.3 1045.8,1163.6 1047.3,1163 Z" stroke="#121E48" stroke-width="3" fill="none"></path>
                        <path d="M922.8,948.3 L929.8,940.5 C932.8,937.2 937.9,936.9 941.2,939.8 L949,946.8 C952.3,949.8 952.6,954.9 949.7,958.2 L942.7,966 C939.7,969.3 934.6,969.6 931.3,966.7 L923.5,959.7 C920.1,956.7 919.8,951.6 922.8,948.3 Z" stroke="none" fill="#FFFFFF" fill-rule="nonzero"></path>
                        <path d="M935.3,899.1 L936.3,894.3 C936.4,893.9 936.8,893.6 937.2,893.7 L942,894.7 C942.4,894.8 942.7,895.2 942.6,895.6 L941.6,900.4 C941.5,900.8 941.1,901.1 940.7,901 L935.9,900 C935.5,900 935.2,899.6 935.3,899.1 Z" stroke="none" fill="#FFFFFF" fill-rule="nonzero"></path>
                        <path d="M968.3,1026.1 L971.9,1022.7 C972.2,1022.4 972.7,1022.4 973,1022.7 L976.4,1026.3 C976.7,1026.6 976.7,1027.1 976.4,1027.4 L972.8,1030.8 C972.5,1031.1 972,1031.1 971.7,1030.8 L968.3,1027.2 C967.9,1026.9 968,1026.4 968.3,1026.1 Z" stroke="none" fill="#FFFFFF" fill-rule="nonzero"></path>
                        <path d="M861.1,991.4 L859.2,986.9 C859,986.5 859.2,986 859.6,985.8 L864.1,983.9 C864.5,983.7 865,983.9 865.2,984.3 L867.1,988.8 C867.3,989.2 867.1,989.7 866.7,989.9 L862.2,991.8 C861.7,992 861.2,991.9 861.1,991.4 Z" stroke="none" fill="#121E48" fill-rule="nonzero"></path>
                        <path d="M991.4,1155 L993.2,1150.4 C993.4,1150 993.8,1149.8 994.2,1149.9 L998.8,1151.7 C999.2,1151.9 999.4,1152.3 999.3,1152.7 L997.5,1157.3 C997.3,1157.7 996.9,1157.9 996.5,1157.8 L991.9,1156 C991.5,1155.9 991.3,1155.4 991.4,1155 Z" stroke="none" fill="#121E48" fill-rule="nonzero"></path>
                        <path d="M1026.8,1105.5 L1031.4,1103.6 C1031.8,1103.4 1032.3,1103.6 1032.4,1104 L1034.3,1108.6 C1034.5,1109 1034.3,1109.5 1033.9,1109.6 L1029.3,1111.5 C1028.9,1111.7 1028.4,1111.5 1028.3,1111.1 L1026.4,1106.5 C1026.2,1106.1 1026.4,1105.6 1026.8,1105.5 Z" stroke="none" fill="#FFFFFF" fill-rule="nonzero"></path>
                        <path d="M1088,985.1 L1091.3,981.4 C1091.6,981.1 1092.1,981 1092.4,981.3 L1096.1,984.6 C1096.4,984.9 1096.5,985.4 1096.2,985.7 L1092.9,989.4 C1092.6,989.7 1092.1,989.8 1091.8,989.5 L1088.1,986.2 C1087.7,985.9 1087.7,985.4 1088,985.1 Z" stroke="none" fill="#FFFFFF" fill-rule="nonzero"></path>
                        <path d="M932,1092.9 L928.1,1085.5 C927.4,1084.3 927.9,1082.8 929.1,1082.1 L936.5,1078.2 C937.7,1077.5 939.2,1078 939.9,1079.2 L943.8,1086.6 C944.5,1087.8 944,1089.3 942.8,1090 L935.4,1093.9 C934.1,1094.6 932.6,1094.2 932,1092.9 Z" stroke="none" fill="#FFFFFF" fill-rule="nonzero"></path>
                        <path d="M868.3,1115.4 L864.7,1107.8 C864.1,1106.5 864.6,1105.1 865.9,1104.5 L873.5,1100.9 C874.8,1100.3 876.2,1100.8 876.8,1102.1 L880.4,1109.7 C881,1111 880.5,1112.4 879.2,1113 L871.6,1116.6 C870.4,1117.2 868.9,1116.7 868.3,1115.4 Z" stroke="none" fill="#FFFFFF" fill-rule="nonzero"></path>
                        <path d="M891,1020.9 L899.3,1021.5 C900.7,1021.6 901.7,1022.8 901.6,1024.2 L901,1032.5 C900.9,1033.9 899.7,1034.9 898.3,1034.8 L890,1034.2 C888.6,1034.1 887.6,1032.9 887.7,1031.5 L888.3,1023.2 C888.4,1021.9 889.6,1020.8 891,1020.9 Z" stroke="none" fill="#121E48" fill-rule="nonzero"></path>
                        <path d="M867.4,892.3 L864.8,884.4 C864.4,883.1 865.1,881.7 866.4,881.2 L874.3,878.6 C875.6,878.2 877,878.9 877.5,880.2 L880.1,888.1 C880.5,889.4 879.8,890.8 878.5,891.3 L870.6,893.9 C869.3,894.4 867.9,893.7 867.4,892.3 Z" stroke="none" fill="#121E48" fill-rule="nonzero"></path>
                        <path d="M1028.6,1021.2 L1035.2,1017.9 C1036.7,1017.2 1038.5,1017.8 1039.2,1019.2 L1042.5,1025.8 C1043.2,1027.3 1042.6,1029.1 1041.2,1029.8 L1034.6,1033.1 C1033.1,1033.8 1031.3,1033.2 1030.6,1031.8 L1027.3,1025.2 C1026.5,1023.7 1027.1,1021.9 1028.6,1021.2 Z" stroke="#121E48" stroke-width="1" fill="none"></path>
                        <path d="M1097.2,1132.8 L1095.5,1124.6 C1095.2,1123.2 1096.1,1121.9 1097.4,1121.6 L1105.6,1119.9 C1107,1119.6 1108.3,1120.5 1108.6,1121.8 L1110.3,1130 C1110.6,1131.4 1109.7,1132.7 1108.4,1133 L1100.2,1134.7 C1098.8,1135 1097.5,1134.2 1097.2,1132.8 Z" stroke="none" fill="#FFFFFF" fill-rule="nonzero"></path>
                        <path d="M983.8,869.5 L988.9,856.3 C990.1,853.1 993.8,851.5 997,852.7 L1010.2,857.8 C1013.4,859 1015,862.7 1013.8,865.9 L1008.7,879.1 C1007.5,882.3 1003.8,883.9 1000.6,882.7 L987.4,877.6 C984.2,876.3 982.6,872.7 983.8,869.5 Z" stroke="#FFFFFF" stroke-width="3" fill="none"></path>
                        <path d="M1161.2,953.1 L1158.6,945.2 C1158.2,943.9 1158.9,942.5 1160.2,942 L1168.1,939.4 C1169.4,939 1170.8,939.7 1171.3,941 L1173.9,948.9 C1174.3,950.2 1173.6,951.6 1172.3,952.1 L1164.4,954.7 C1163.1,955.1 1161.6,954.4 1161.2,953.1 Z" stroke="#FFFFFF" stroke-width="2" fill="none"></path>
                        <path d="M975.1,618.8 L977.2,608.5 C978.1,604.1 982.4,601.3 986.8,602.2 L997.1,604.3 C1001.5,605.2 1004.3,609.5 1003.4,613.9 L1001.3,624.2 C1000.4,628.6 996.1,631.4 991.7,630.5 L981.4,628.4 C977,627.4 974.2,623.2 975.1,618.8 Z" stroke="none" fill="#FFFFFF" fill-rule="nonzero"></path>
                        <path d="M954.6,705.1 L962.3,698 C965.6,695 970.7,695.2 973.7,698.4 L980.8,706.1 C983.8,709.4 983.6,714.5 980.4,717.5 L972.7,724.6 C969.4,727.6 964.3,727.4 961.3,724.2 L954.2,716.5 C951.1,713.2 951.3,708.1 954.6,705.1 Z" stroke="none" fill="#FFFFFF" fill-rule="nonzero"></path>
                        <path d="M881.6,636.4 L877.5,626.8 C875.7,622.7 877.6,617.9 881.8,616.2 L891.4,612.1 C895.5,610.3 900.3,612.2 902,616.4 L906.1,626 C907.9,630.1 906,634.9 901.8,636.6 L892.2,640.7 C888.1,642.4 883.3,640.5 881.6,636.4 Z" stroke="none" fill="#121E48" fill-rule="nonzero"></path>
                        <path d="M784.3,836.6 L788,826.8 C789.6,822.6 794.3,820.5 798.5,822.1 L808.3,825.8 C812.5,827.4 814.6,832.1 813,836.3 L809.3,846.1 C807.7,850.3 803,852.4 798.8,850.8 L789,847.1 C784.8,845.5 782.7,840.8 784.3,836.6 Z" stroke="none" fill="#121E48" fill-rule="nonzero"></path>
                        <path d="M907.8,838 L927.1,830.2 C928.6,829.6 930.3,830.3 930.9,831.8 L938.7,851.1 C939.3,852.6 938.6,854.3 937.1,854.9 L917.8,862.7 C916.3,863.3 914.6,862.6 914,861.1 L906.2,841.8 C905.6,840.3 906.3,838.6 907.8,838 Z" stroke="#121E48" stroke-width="3" fill="none"></path>
                        <path d="M783.3,623.3 L790.3,615.5 C793.3,612.2 798.4,611.9 801.7,614.8 L809.5,621.8 C812.8,624.8 813.1,629.9 810.2,633.2 L803.2,641 C800.2,644.3 795.1,644.6 791.8,641.7 L784,634.7 C780.7,631.8 780.4,626.7 783.3,623.3 Z" stroke="none" fill="#FFFFFF" fill-rule="nonzero"></path>
                        <path d="M795.8,574.2 L796.8,569.4 C796.9,569 797.3,568.7 797.7,568.8 L802.5,569.8 C802.9,569.9 803.2,570.3 803.1,570.7 L802.1,575.5 C802,575.9 801.6,576.2 801.2,576.1 L796.4,575.1 C796,575.1 795.8,574.6 795.8,574.2 Z" stroke="none" fill="#FFFFFF" fill-rule="nonzero"></path>
                        <path d="M828.8,701.1 L832.4,697.7 C832.7,697.4 833.2,697.4 833.5,697.7 L836.9,701.3 C837.2,701.6 837.2,702.1 836.9,702.4 L833.3,705.8 C833,706.1 832.5,706.1 832.2,705.8 L828.8,702.2 C828.5,701.9 828.5,701.4 828.8,701.1 Z" stroke="none" fill="#FFFFFF" fill-rule="nonzero"></path>
                        <path d="M721.6,666.5 L719.7,662 C719.5,661.6 719.7,661.1 720.1,660.9 L724.6,659 C725,658.8 725.5,659 725.7,659.4 L727.6,663.9 C727.8,664.3 727.6,664.8 727.2,665 L722.7,666.9 C722.3,667.1 721.8,666.9 721.6,666.5 Z" stroke="none" fill="#121E48" fill-rule="nonzero"></path>
                        <path d="M852,830.1 L853.8,825.5 C854,825.1 854.4,824.9 854.8,825 L859.4,826.8 C859.8,827 860,827.4 859.9,827.8 L858.1,832.4 C857.9,832.8 857.5,833 857.1,832.9 L852.5,831.1 C852,831 851.8,830.5 852,830.1 Z" stroke="none" fill="#121E48" fill-rule="nonzero"></path>
                        <path d="M887.4,780.5 L892,778.6 C892.4,778.4 892.9,778.6 893,779 L894.9,783.6 C895.1,784 894.9,784.5 894.5,784.6 L889.9,786.5 C889.5,786.7 889,786.5 888.9,786.1 L887,781.5 C886.7,781.2 886.9,780.7 887.4,780.5 Z" stroke="none" fill="#FFFFFF" fill-rule="nonzero"></path>
                        <path d="M948.5,660.1 L951.8,656.4 C952.1,656.1 952.6,656 952.9,656.3 L956.6,659.6 C956.9,659.9 957,660.4 956.7,660.7 L953.4,664.4 C953.1,664.7 952.6,664.8 952.3,664.5 L948.6,661.2 C948.3,661 948.2,660.5 948.5,660.1 Z" stroke="none" fill="#FFFFFF" fill-rule="nonzero"></path>
                        <path d="M792.5,768 L788.6,760.6 C787.9,759.4 788.4,757.9 789.6,757.2 L797,753.3 C798.2,752.6 799.7,753.1 800.4,754.3 L804.3,761.7 C805,762.9 804.5,764.4 803.3,765.1 L795.9,769 C794.7,769.7 793.2,769.2 792.5,768 Z" stroke="none" fill="#FFFFFF" fill-rule="nonzero"></path>
                        <path d="M728.9,790.5 L725.3,782.9 C724.7,781.6 725.2,780.2 726.5,779.6 L734.1,776 C735.4,775.4 736.8,775.9 737.4,777.2 L741,784.8 C741.6,786.1 741.1,787.5 739.8,788.1 L732.2,791.7 C731,792.3 729.5,791.8 728.9,790.5 Z" stroke="none" fill="#FFFFFF" fill-rule="nonzero"></path>
                        <path d="M751.5,696 L759.8,696.6 C761.2,696.7 762.2,697.9 762.1,699.3 L761.5,707.6 C761.4,709 760.2,710 758.8,709.9 L750.5,709.3 C749.1,709.2 748.1,708 748.2,706.6 L748.8,698.3 C748.9,696.9 750.1,695.9 751.5,696 Z" stroke="none" fill="#121E48" fill-rule="nonzero"></path>
                        <path d="M728,567.4 L725.4,559.5 C725,558.2 725.7,556.8 727,556.3 L734.9,553.7 C736.2,553.3 737.6,554 738.1,555.3 L740.7,563.2 C741.1,564.5 740.4,565.9 739.1,566.4 L731.2,569 C729.8,569.4 728.4,568.7 728,567.4 Z" stroke="none" fill="#121E48" fill-rule="nonzero"></path>
                        <path d="M889.1,696.3 L895.7,693 C897.2,692.3 899,692.9 899.7,694.3 L903,700.9 C903.7,702.4 903.1,704.2 901.7,704.9 L895.1,708.2 C893.6,708.9 891.8,708.3 891.1,706.9 L887.8,700.3 C887.1,698.8 887.7,697 889.1,696.3 Z" stroke="#121E48" stroke-width="1" fill="none"></path>
                        <path d="M957.8,807.9 L956.1,799.7 C955.8,798.3 956.7,797 958,796.7 L966.2,795 C967.6,794.7 968.9,795.6 969.2,796.9 L970.9,805.1 C971.2,806.5 970.3,807.8 969,808.1 L960.8,809.8 C959.4,810.1 958,809.2 957.8,807.9 Z" stroke="none" fill="#FFFFFF" fill-rule="nonzero"></path>
                        <path d="M844.4,544.6 L849.5,531.4 C850.7,528.2 854.4,526.6 857.6,527.8 L870.8,532.9 C874,534.1 875.6,537.8 874.4,541 L869.3,554.2 C868.1,557.4 864.4,559 861.2,557.8 L848,552.7 C844.8,551.4 843.1,547.8 844.4,544.6 Z" stroke="#FFFFFF" stroke-width="3" fill="none"></path>
                        <path d="M1021.8,628.2 L1019.2,620.3 C1018.8,619 1019.5,617.6 1020.8,617.1 L1028.7,614.5 C1030,614.1 1031.4,614.8 1031.9,616.1 L1034.5,624 C1034.9,625.3 1034.2,626.7 1032.9,627.2 L1025,629.8 C1023.6,630.2 1022.2,629.5 1021.8,628.2 Z" stroke="#FFFFFF" stroke-width="2" fill="none"></path>
                        <path d="M644.8,511.7 L648.5,501.9 C650.1,497.7 654.8,495.6 659,497.2 L668.8,500.9 C673,502.5 675.1,507.2 673.5,511.4 L669.8,521.2 C668.2,525.4 663.5,527.5 659.3,525.9 L649.5,522.2 C645.3,520.5 643.2,515.9 644.8,511.7 Z" stroke="none" fill="#121E48" fill-rule="nonzero"></path>
                        <path d="M768.4,513.1 L787.7,505.3 C789.2,504.7 790.9,505.4 791.5,506.9 L799.3,526.2 C799.9,527.7 799.2,529.4 797.7,530 L778.4,537.8 C776.9,538.4 775.2,537.7 774.6,536.2 L766.8,516.9 C766.2,515.4 766.9,513.7 768.4,513.1 Z" stroke="#121E48" stroke-width="3" fill="none"></path>
                        <path d="M712.6,505.1 L714.4,500.5 C714.6,500.1 715,499.9 715.4,500 L720,501.8 C720.4,502 720.6,502.4 720.5,502.8 L718.7,507.4 C718.5,507.8 718.1,508 717.7,507.9 L713.1,506.1 C712.6,506 712.4,505.6 712.6,505.1 Z" stroke="none" fill="#121E48" fill-rule="nonzero"></path>
                        <path d="M747.9,455.6 L752.5,453.7 C752.9,453.5 753.4,453.7 753.5,454.1 L755.4,458.7 C755.6,459.1 755.4,459.6 755,459.7 L750.4,461.6 C750,461.8 749.5,461.6 749.4,461.2 L747.5,456.6 C747.3,456.2 747.5,455.8 747.9,455.6 Z" stroke="none" fill="#FFFFFF" fill-rule="nonzero"></path>
                        <path d="M589.4,465.6 L585.8,458 C585.2,456.7 585.7,455.3 587,454.7 L594.6,451.1 C595.9,450.5 597.3,451 597.9,452.3 L601.5,459.9 C602.1,461.2 601.6,462.6 600.3,463.2 L592.7,466.8 C591.5,467.4 590,466.8 589.4,465.6 Z" stroke="none" fill="#FFFFFF" fill-rule="nonzero"></path>
                        <path d="M818.3,483 L816.6,474.8 C816.3,473.4 817.2,472.1 818.5,471.8 L826.7,470.1 C828.1,469.8 829.4,470.7 829.7,472 L831.4,480.2 C831.7,481.6 830.8,482.9 829.5,483.2 L821.3,484.9 C819.9,485.2 818.6,484.3 818.3,483 Z" stroke="none" fill="#FFFFFF" fill-rule="nonzero"></path>
                    </g>
                </g>
            </g>
        </g>
    </g>
</svg>